<svg width="24" height="24" viewBox="0 0 24 24" fill="none" xmlns="http://www.w3.org/2000/svg">
<path d="M3.52887 2.47009C3.38669 2.33761 3.19865 2.26549 3.00435 2.26892C2.81005 2.27234 2.62466 2.35106 2.48725 2.48847C2.34984 2.62588 2.27112 2.81127 2.26769 3.00557C2.26427 3.19987 2.33639 3.38792 2.46887 3.53009L20.4689 21.5301C20.5375 21.6038 20.6203 21.6629 20.7123 21.7039C20.8043 21.7449 20.9036 21.7669 21.0043 21.7687C21.1051 21.7705 21.2051 21.7519 21.2985 21.7142C21.3919 21.6765 21.4767 21.6203 21.5479 21.5491C21.6191 21.4779 21.6753 21.3931 21.713 21.2997C21.7507 21.2063 21.7692 21.1063 21.7675 21.0056C21.7657 20.9049 21.7436 20.8056 21.7027 20.7136C21.6617 20.6216 21.6026 20.5388 21.5289 20.4701L3.52887 2.47009ZM22.6749 12.5531C22.1358 14.1706 21.2362 15.6444 20.0439 16.8631L16.9449 13.7641C17.2792 12.828 17.3409 11.8163 17.1229 10.8465C16.9048 9.87669 16.4159 8.98874 15.7131 8.28588C15.0102 7.58301 14.1223 7.09413 13.1525 6.87607C12.1827 6.65802 11.1709 6.71975 10.2349 7.05409L7.75787 4.57709C9.10489 4.02905 10.5456 3.74817 11.9999 3.75009C16.9699 3.75009 21.1849 6.97309 22.6749 11.4401C22.7949 11.8021 22.7949 12.1921 22.6749 12.5531Z" fill="#0070FF"/>
<path d="M15.7488 12.0001C15.7488 12.1801 15.7358 12.3571 15.7118 12.5301L11.4678 8.28705C11.9998 8.21096 12.5419 8.25009 13.0575 8.4018C13.573 8.5535 14.0499 8.81424 14.4559 9.16635C14.8618 9.51846 15.1874 9.95371 15.4105 10.4426C15.6335 10.9315 15.7489 11.4627 15.7488 12.0001ZM12.5288 15.7131L8.28582 11.4691C8.20337 12.0455 8.25632 12.6333 8.44046 13.1857C8.62461 13.7382 8.93488 14.2402 9.34671 14.6519C9.75853 15.0636 10.2606 15.3738 10.8131 15.5578C11.3656 15.7418 11.9534 15.7946 12.5298 15.7121L12.5288 15.7131Z" fill="#0070FF"/>
<path d="M6.7494 12C6.7494 11.381 6.8564 10.787 7.0534 10.236L3.9534 7.13599C2.7615 8.35483 1.86219 9.82861 1.3234 11.446C1.2034 11.808 1.2034 12.198 1.3234 12.56C2.8124 17.027 7.0274 20.25 11.9984 20.25C13.4984 20.25 14.9314 19.956 16.2404 19.423L13.7634 16.946C12.971 17.2286 12.1224 17.3168 11.2889 17.2029C10.4553 17.0891 9.66139 16.7766 8.97388 16.2917C8.28636 15.8069 7.72542 15.164 7.3383 14.4171C6.95117 13.6702 6.7492 12.8412 6.7494 12Z" fill="#0070FF"/>
</svg>
